<svg width="1479" height="494" viewBox="0 0 1479 494" fill="none" xmlns="http://www.w3.org/2000/svg">
<path d="M739.5 494C1147.91 494 1479 337.786 1479 145.086V0H0V145.086C0 337.786 331.085 494 739.5 494Z" fill="black"/>
<path d="M140.727 167.246H91.8984L81.4492 198.008H97.9531V215H44.4375V198.008H60.8438L97.9531 94.4922H81.4492V79.1602H150.883V94.4922H133.988L171.977 198.008H187.211V215H133.988V198.008H150.883L140.727 167.246ZM135.648 151.328L117.582 94.4922H115.727L96.9766 151.328H135.648ZM296.293 198.496V215H261.43V204.16C250.557 212.428 240.141 216.562 230.18 216.562C223.865 216.562 218.624 215.195 214.457 212.461C210.355 209.661 207.621 206.081 206.254 201.719C204.887 197.292 204.203 190.195 204.203 180.43V136.973H190.824V120.469H222.758V178.086C222.758 185.052 222.953 189.74 223.344 192.148C223.734 194.557 224.874 196.543 226.762 198.105C228.65 199.668 231.026 200.449 233.891 200.449C242.484 200.449 251.664 196.348 261.43 188.145V136.973H244.73V120.469H279.984V198.496H296.293ZM421.098 120.469V136.973H404.105V207.383C404.105 216.888 403.617 223.919 402.641 228.477C401.664 233.099 399.288 237.786 395.512 242.539C391.801 247.357 386.202 251.393 378.715 254.648C371.228 257.904 362.862 259.531 353.617 259.531C339.685 259.531 327.25 255.332 316.312 246.934L328.422 233.457C336.625 239.837 345.544 243.027 355.18 243.027C360.518 243.027 365.466 241.986 370.023 239.902C374.581 237.884 377.966 235.41 380.18 232.48C382.458 229.551 383.923 226.751 384.574 224.082C385.225 221.478 385.551 217.051 385.551 210.801V202.207C382.621 205.918 378.031 209.434 371.781 212.754C365.531 216.074 358.695 217.734 351.273 217.734C337.732 217.734 326.697 213.047 318.168 203.672C309.639 194.297 305.375 182.773 305.375 169.102C305.375 154.128 310.062 142.051 319.438 132.871C328.878 123.626 339.783 119.004 352.152 119.004C364.652 119.004 375.785 123.984 385.551 133.945V120.469H421.098ZM325.102 168.711C325.102 178.281 327.868 186.094 333.402 192.148C339.001 198.203 346.13 201.23 354.789 201.23C363.253 201.23 370.544 198.203 376.664 192.148C382.784 186.029 385.844 178.184 385.844 168.613C385.844 158.913 382.784 151.133 376.664 145.273C370.544 139.349 363.448 136.387 355.375 136.387C347.302 136.387 340.238 139.316 334.184 145.176C328.129 150.97 325.102 158.815 325.102 168.711ZM533.988 198.496V215H499.125V204.16C488.253 212.428 477.836 216.562 467.875 216.562C461.56 216.562 456.319 215.195 452.152 212.461C448.051 209.661 445.316 206.081 443.949 201.719C442.582 197.292 441.898 190.195 441.898 180.43V136.973H428.52V120.469H460.453V178.086C460.453 185.052 460.648 189.74 461.039 192.148C461.43 194.557 462.569 196.543 464.457 198.105C466.345 199.668 468.721 200.449 471.586 200.449C480.18 200.449 489.359 196.348 499.125 188.145V136.973H482.426V120.469H517.68V198.496H533.988ZM544.242 215V182.578H560.844V185.703C561.43 190.13 563.806 193.776 567.973 196.641C572.204 199.505 577.185 200.938 582.914 200.938C588.904 200.938 593.689 199.896 597.27 197.812C600.85 195.729 602.641 192.832 602.641 189.121C602.641 185.54 601.143 182.904 598.148 181.211C595.219 179.518 589.359 177.956 580.57 176.523C567.549 174.31 558.24 170.762 552.641 165.879C547.107 160.931 544.34 154.551 544.34 146.738C544.34 138.861 547.367 132.285 553.422 127.012C559.477 121.673 567.452 119.004 577.348 119.004C586.267 119.004 593.949 120.827 600.395 124.473V120.469H616.898V151.816H600.395V146.055C595.382 138.307 588.09 134.434 578.52 134.434C573.637 134.434 569.6 135.508 566.41 137.656C563.285 139.74 561.723 142.539 561.723 146.055C561.723 149.635 563.155 152.109 566.02 153.477C568.949 154.779 575.199 156.178 584.77 157.676C593.949 159.108 600.883 160.801 605.57 162.754C610.258 164.642 614.132 167.832 617.191 172.324C620.316 176.751 621.879 181.927 621.879 187.852C621.879 196.641 618.493 203.639 611.723 208.848C605.017 213.991 596.293 216.562 585.551 216.562C575.46 216.562 567.224 214.284 560.844 209.727V215H544.242ZM633.695 136.973V120.469H646V105.918L664.555 88.9258V120.469H682.035V136.973H664.555V182.871C664.555 190.228 664.945 194.785 665.727 196.543C666.573 198.236 668.624 199.082 671.879 199.082C675.329 199.082 678.715 198.431 682.035 197.129V214.023C677.283 215.716 672.53 216.562 667.777 216.562C662.113 216.562 657.523 215.326 654.008 212.852C650.492 210.312 648.279 207.155 647.367 203.379C646.456 199.603 646 193.092 646 183.848V136.973H633.695ZM695.609 167.734C695.609 153.151 700.427 141.204 710.062 131.895C719.698 122.52 731.449 117.832 745.316 117.832C758.923 117.832 770.609 122.454 780.375 131.699C790.141 140.879 795.023 152.891 795.023 167.734C795.023 182.578 790.141 194.622 780.375 203.867C770.674 213.112 758.988 217.734 745.316 217.734C731.254 217.734 719.438 213.047 709.867 203.672C700.362 194.297 695.609 182.318 695.609 167.734ZM715.238 167.734C715.238 177.044 718.135 184.694 723.93 190.684C729.789 196.608 736.918 199.57 745.316 199.57C753.845 199.57 760.974 196.576 766.703 190.586C772.497 184.531 775.395 176.914 775.395 167.734C775.395 158.49 772.465 150.872 766.605 144.883C760.746 138.893 753.65 135.898 745.316 135.898C736.592 135.898 729.398 138.958 723.734 145.078C718.07 151.198 715.238 158.75 715.238 167.734ZM859.574 215V165.684H876.566V177.695C884.704 192.474 895.349 199.863 908.5 199.863C915.206 199.863 920.87 197.812 925.492 193.711C930.115 189.609 932.426 184.238 932.426 177.598C932.426 171.152 930.538 166.53 926.762 163.73C922.986 160.866 915.857 158.034 905.375 155.234C893.201 151.979 884.184 148.919 878.324 146.055C872.465 143.125 867.777 138.991 864.262 133.652C860.811 128.249 859.086 121.868 859.086 114.512C859.086 103.118 862.862 94.0365 870.414 87.2656C878.031 80.4297 887.569 77.0117 899.027 77.0117C909.9 77.0117 919.991 80.5273 929.301 87.5586V78.4766H945.902V119.688H929.301V110.215C922.335 99.7331 912.732 94.4922 900.492 94.4922C893.07 94.4922 887.374 96.2174 883.402 99.668C879.431 103.053 877.445 107.122 877.445 111.875C877.445 115.521 878.454 118.743 880.473 121.543C882.491 124.277 885.062 126.296 888.188 127.598C891.312 128.9 897.465 130.723 906.645 133.066C918.624 136.191 927.315 139.121 932.719 141.855C938.122 144.525 942.777 149.017 946.684 155.332C950.59 161.647 952.543 168.906 952.543 177.109C952.543 188.698 948.441 198.268 940.238 205.82C932.1 213.372 922.009 217.148 909.965 217.148C897.595 217.148 886.462 212.689 876.566 203.77V215H859.574ZM977.445 88.3398C977.445 85.3451 978.487 82.7409 980.57 80.5273C982.719 78.3138 985.421 77.207 988.676 77.207C991.736 77.207 994.372 78.2812 996.586 80.4297C998.799 82.5781 999.906 85.2148 999.906 88.3398C999.906 91.4648 998.799 94.1341 996.586 96.3477C994.372 98.4961 991.736 99.5703 988.676 99.5703C985.551 99.5703 982.882 98.4635 980.668 96.25C978.52 94.0365 977.445 91.3997 977.445 88.3398ZM980.082 198.496V136.973H965.336V120.469H998.637V198.496H1013.19V215H965.336V198.496H980.082ZM1140.04 120.469V136.973H1123.05V207.383C1123.05 216.888 1122.56 223.919 1121.59 228.477C1120.61 233.099 1118.23 237.786 1114.46 242.539C1110.75 247.357 1105.15 251.393 1097.66 254.648C1090.17 257.904 1081.81 259.531 1072.56 259.531C1058.63 259.531 1046.2 255.332 1035.26 246.934L1047.37 233.457C1055.57 239.837 1064.49 243.027 1074.12 243.027C1079.46 243.027 1084.41 241.986 1088.97 239.902C1093.53 237.884 1096.91 235.41 1099.12 232.48C1101.4 229.551 1102.87 226.751 1103.52 224.082C1104.17 221.478 1104.5 217.051 1104.5 210.801V202.207C1101.57 205.918 1096.98 209.434 1090.73 212.754C1084.48 216.074 1077.64 217.734 1070.22 217.734C1056.68 217.734 1045.64 213.047 1037.11 203.672C1028.58 194.297 1024.32 182.773 1024.32 169.102C1024.32 154.128 1029.01 142.051 1038.38 132.871C1047.82 123.626 1058.73 119.004 1071.1 119.004C1083.6 119.004 1094.73 123.984 1104.5 133.945V120.469H1140.04ZM1044.05 168.711C1044.05 178.281 1046.81 186.094 1052.35 192.148C1057.95 198.203 1065.08 201.23 1073.73 201.23C1082.2 201.23 1089.49 198.203 1095.61 192.148C1101.73 186.029 1104.79 178.184 1104.79 168.613C1104.79 158.913 1101.73 151.133 1095.61 145.273C1089.49 139.349 1082.39 136.387 1074.32 136.387C1066.25 136.387 1059.18 139.316 1053.13 145.176C1047.07 150.97 1044.05 158.815 1044.05 168.711ZM1145.8 167.734C1145.8 153.151 1150.62 141.204 1160.26 131.895C1169.89 122.52 1181.64 117.832 1195.51 117.832C1209.12 117.832 1220.8 122.454 1230.57 131.699C1240.34 140.879 1245.22 152.891 1245.22 167.734C1245.22 182.578 1240.34 194.622 1230.57 203.867C1220.87 213.112 1209.18 217.734 1195.51 217.734C1181.45 217.734 1169.63 213.047 1160.06 203.672C1150.56 194.297 1145.8 182.318 1145.8 167.734ZM1165.43 167.734C1165.43 177.044 1168.33 184.694 1174.12 190.684C1179.98 196.608 1187.11 199.57 1195.51 199.57C1204.04 199.57 1211.17 196.576 1216.9 190.586C1222.69 184.531 1225.59 176.914 1225.59 167.734C1225.59 158.49 1222.66 150.872 1216.8 144.883C1210.94 138.893 1203.85 135.898 1195.51 135.898C1186.79 135.898 1179.59 138.958 1173.93 145.078C1168.27 151.198 1165.43 158.75 1165.43 167.734ZM1273.64 198.496V95.6641H1256.84V79.1602H1292.19V198.496H1306.64V215H1256.84V198.496H1273.64ZM1318.85 167.734C1318.85 153.151 1323.67 141.204 1333.3 131.895C1342.94 122.52 1354.69 117.832 1368.56 117.832C1382.17 117.832 1393.85 122.454 1403.62 131.699C1413.38 140.879 1418.27 152.891 1418.27 167.734C1418.27 182.578 1413.38 194.622 1403.62 203.867C1393.92 213.112 1382.23 217.734 1368.56 217.734C1354.5 217.734 1342.68 213.047 1333.11 203.672C1323.6 194.297 1318.85 182.318 1318.85 167.734ZM1338.48 167.734C1338.48 177.044 1341.38 184.694 1347.17 190.684C1353.03 196.608 1360.16 199.57 1368.56 199.57C1377.09 199.57 1384.22 196.576 1389.95 190.586C1395.74 184.531 1398.64 176.914 1398.64 167.734C1398.64 158.49 1395.71 150.872 1389.85 144.883C1383.99 138.893 1376.89 135.898 1368.56 135.898C1359.83 135.898 1352.64 138.958 1346.98 145.078C1341.31 151.198 1338.48 158.75 1338.48 167.734Z" fill="white"/>
<path d="M739.5 483C775.675 483 805 453.675 805 417.5C805 381.325 775.675 352 739.5 352C703.325 352 674 381.325 674 417.5C674 453.675 703.325 483 739.5 483Z" fill="white"/>
<path d="M739.5 483C775.675 483 805 453.675 805 417.5C805 381.325 775.675 352 739.5 352C703.325 352 674 381.325 674 417.5C674 453.675 703.325 483 739.5 483Z" fill="url(#paint0_linear)"/>
<path d="M739.821 407.105L768.142 419.18L739.82 431.395L739.7 431.447V431.578V440.665V440.983L739.986 440.844L777.129 422.908L777.242 422.854V422.728V415.819V415.694L777.129 415.639L739.986 397.75L739.7 397.612V397.93V406.922V407.054L739.821 407.105Z" fill="black" stroke="black"/>
<mask id="mask0" mask-type="alpha" maskUnits="userSpaceOnUse" x="701" y="395" width="39" height="43">
<path d="M739.782 395.534H701.957V437.092H739.782V395.534Z" fill="#C4C4C4"/>
</mask>
<g mask="url(#mask0)">
<path d="M725.288 424.834L725.286 424.837C724.194 426.565 722.662 427.42 720.669 427.42C718.801 427.42 717.292 426.469 716.137 424.514C715.007 422.583 714.432 419.993 714.432 416.729C714.432 413.188 715.169 410.352 716.625 408.205C718.104 406.094 720.084 404.969 722.579 404.817L722.766 404.805V404.617V395.933V395.733H722.567C719.878 395.733 717.374 396.627 715.06 398.403L715.057 398.405C712.77 400.214 710.991 402.701 709.715 405.857C708.438 409.015 707.803 412.64 707.803 416.729C707.803 422.545 709.004 427.296 711.425 430.968L711.426 430.969C713.879 434.649 717.143 436.503 721.205 436.503C723.636 436.503 725.703 435.835 727.393 434.49C729.106 433.18 730.553 431.161 731.744 428.451C732.935 425.741 733.956 422.205 734.811 417.847C735.663 413.529 736.552 410.569 737.47 408.94C738.372 407.342 739.696 406.554 741.464 406.554C743.343 406.554 744.866 407.406 746.043 409.142C747.223 410.881 747.824 413.308 747.824 416.447C747.824 419.48 747.077 421.97 745.595 423.931L745.594 423.933C744.11 425.928 742.363 426.903 740.35 426.903H740.15V427.103V435.834V436.034H740.35C744.491 436.034 747.89 434.199 750.537 430.554C753.182 426.943 754.495 422.235 754.495 416.447C754.495 410.94 753.223 406.389 750.662 402.811L750.661 402.81C748.101 399.264 744.951 397.47 741.216 397.47C738.976 397.47 737.035 398.092 735.401 399.342L735.399 399.343C733.77 400.621 732.378 402.561 731.214 405.146L731.214 405.146C730.05 407.764 729.056 411.27 728.23 415.659V415.659C727.405 420.068 726.42 423.117 725.288 424.834Z" fill="black" stroke="black"/>
</g>
<path d="M342.976 327H324.864V324.184L330.688 322.072V286.68H319.424L317.312 292.184H313.344V281.816H354.944V292.184H350.976L348.864 286.68H337.152V322.072L342.976 324.184V327ZM371.097 327.64C366.275 327.64 362.35 326.275 359.321 323.544C356.334 320.771 354.841 316.739 354.841 311.448C354.841 306.157 356.377 301.976 359.449 298.904C362.521 295.789 366.105 294.232 370.201 294.232C379.929 294.232 384.793 299.992 384.793 311.512H361.049V311.832C361.049 314.861 362.115 317.421 364.249 319.512C366.382 321.603 369.283 322.648 372.953 322.648C374.531 322.648 376.025 322.477 377.433 322.136C378.841 321.752 379.865 321.368 380.505 320.984L381.401 320.472L383.257 323.8C383.129 323.885 382.937 324.035 382.681 324.248C382.467 324.419 381.977 324.717 381.209 325.144C380.441 325.571 379.609 325.955 378.713 326.296C376.451 327.192 373.913 327.64 371.097 327.64ZM378.841 307.416C378.627 304.771 377.753 302.765 376.217 301.4C374.723 299.992 372.761 299.288 370.329 299.288C367.939 299.288 365.955 299.971 364.377 301.336C362.798 302.659 361.774 304.685 361.305 307.416H378.841ZM402.053 327.64C397.317 327.64 393.413 326.253 390.341 323.48C387.311 320.707 385.797 316.696 385.797 311.448C385.797 308.547 386.373 305.965 387.525 303.704C388.677 301.4 390.191 299.587 392.069 298.264C395.951 295.576 400.197 294.232 404.805 294.232C406.213 294.232 407.599 294.403 408.965 294.744C410.33 295.085 411.354 295.427 412.037 295.768L413.061 296.344V303.896H409.157L408.261 299.992C407.663 299.523 406.511 299.288 404.805 299.288C401.135 299.288 398.085 300.397 395.653 302.616C393.221 304.835 392.005 307.629 392.005 311C392.005 314.371 393.05 317.165 395.141 319.384C397.274 321.56 400.09 322.648 403.589 322.648C405.295 322.648 406.874 322.477 408.325 322.136C409.818 321.752 410.863 321.368 411.461 320.984L412.357 320.472L414.213 323.8C414.085 323.885 413.893 324.035 413.637 324.248C413.423 324.419 412.933 324.717 412.165 325.144C411.397 325.571 410.586 325.955 409.733 326.296C407.429 327.192 404.869 327.64 402.053 327.64ZM452 327H435.168V324.248L440.288 322.136V306.84C440.288 304.323 439.862 302.445 439.008 301.208C438.198 299.971 436.704 299.352 434.528 299.352C430.603 299.352 427.467 300.525 425.12 302.872V322.136L430.56 324.248V327H413.728V324.248L419.104 322.136V282.648H413.728V278.808C415.392 277.997 417.312 277.592 419.488 277.592C421.707 277.592 423.2 278.125 423.968 279.192C424.736 280.216 425.12 281.795 425.12 283.928V299.224C426.016 297.944 427.595 296.792 429.856 295.768C432.16 294.744 434.315 294.232 436.32 294.232C439.648 294.232 442.144 295.171 443.808 297.048C445.472 298.883 446.305 301.4 446.305 304.6V322.136L452 324.248V327ZM489.414 327H472.582V324.248L477.702 322.136V306.84C477.702 304.323 477.275 302.445 476.422 301.208C475.611 299.971 474.118 299.352 471.942 299.352C468.443 299.352 465.307 300.739 462.534 303.512V322.136L467.974 324.248V327H451.142V324.248L456.518 322.136V299.288H451.142V295.448C452.806 294.637 454.704 294.232 456.838 294.232C458.971 294.232 460.422 294.701 461.19 295.64C462 296.579 462.448 297.987 462.534 299.864C463.131 299.096 464.027 298.221 465.222 297.24C467.739 295.235 470.619 294.232 473.862 294.232C477.104 294.232 479.558 295.171 481.222 297.048C482.886 298.883 483.718 301.4 483.718 304.6V322.136L489.414 324.248V327ZM517.143 323.096C514.028 326.168 510.103 327.704 505.367 327.704C500.631 327.704 496.706 326.168 493.591 323.096C490.476 319.981 488.919 315.949 488.919 311C488.919 306.051 490.476 302.019 493.591 298.904C496.706 295.789 500.631 294.232 505.367 294.232C510.103 294.232 514.028 295.789 517.143 298.904C520.258 302.019 521.815 306.051 521.815 311C521.815 315.949 520.258 319.981 517.143 323.096ZM498.007 319.576C499.927 321.624 502.38 322.648 505.367 322.648C508.354 322.648 510.807 321.624 512.727 319.576C514.647 317.485 515.607 314.691 515.607 311.192C515.607 307.693 514.626 304.835 512.663 302.616C510.743 300.397 508.311 299.288 505.367 299.288C502.423 299.288 499.97 300.397 498.007 302.616C496.087 304.835 495.127 307.693 495.127 311.192C495.127 314.691 496.087 317.485 498.007 319.576ZM538.745 327H521.913V324.248L527.289 322.136V282.648H521.913V278.808C523.577 277.997 525.497 277.592 527.673 277.592C529.892 277.592 531.385 278.125 532.153 279.192C532.921 280.216 533.305 281.795 533.305 283.928V322.136L538.745 324.248V327ZM554.766 327H537.933V324.248L543.309 322.136V282.648H537.933V278.808C539.597 277.997 541.517 277.592 543.693 277.592C545.912 277.592 547.405 278.125 548.174 279.192C548.942 280.216 549.326 281.795 549.326 283.928V322.136L554.766 324.248V327ZM583.016 323.096C579.901 326.168 575.976 327.704 571.24 327.704C566.504 327.704 562.578 326.168 559.464 323.096C556.349 319.981 554.792 315.949 554.792 311C554.792 306.051 556.349 302.019 559.464 298.904C562.578 295.789 566.504 294.232 571.24 294.232C575.976 294.232 579.901 295.789 583.016 298.904C586.13 302.019 587.688 306.051 587.688 311C587.688 315.949 586.13 319.981 583.016 323.096ZM563.88 319.576C565.8 321.624 568.253 322.648 571.24 322.648C574.226 322.648 576.68 321.624 578.6 319.576C580.52 317.485 581.48 314.691 581.48 311.192C581.48 307.693 580.498 304.835 578.536 302.616C576.616 300.397 574.184 299.288 571.24 299.288C568.296 299.288 565.842 300.397 563.88 302.616C561.96 304.835 561 307.693 561 311.192C561 314.691 561.96 317.485 563.88 319.576ZM618.372 306.328C618.372 309.912 616.985 312.792 614.212 314.968C611.481 317.144 608.175 318.232 604.292 318.232C602.159 318.232 600.132 317.869 598.212 317.144L595.268 322.456H607.684C612.249 322.456 615.556 323.331 617.604 325.08C619.652 326.829 620.676 329.389 620.676 332.76C620.676 336.131 619.204 338.989 616.26 341.336C613.316 343.683 609.199 344.856 603.908 344.856C598.617 344.856 594.607 343.832 591.876 341.784C589.145 339.736 587.78 337.133 587.78 333.976C587.78 330.861 589.316 328.621 592.388 327.256C590.596 326.659 589.7 325.379 589.7 323.416L589.956 321.816C592.388 318.104 593.86 315.821 594.372 314.968C591.599 312.749 590.212 309.869 590.212 306.328C590.212 302.744 591.599 299.843 594.372 297.624C597.145 295.363 600.452 294.232 604.292 294.232C606.724 294.232 609.071 294.744 611.332 295.768L622.532 294.296L622.34 299.864L615.876 299.288C617.54 301.293 618.372 303.64 618.372 306.328ZM593.412 333.336C593.412 335.299 594.308 336.856 596.1 338.008C597.935 339.203 600.495 339.8 603.78 339.8C607.065 339.8 609.668 339.181 611.588 337.944C613.551 336.707 614.532 335 614.532 332.824C614.532 329.325 612.292 327.576 607.812 327.576L596.42 327.64C594.415 328.749 593.412 330.648 593.412 333.336ZM604.292 313.432C606.937 313.432 609.007 312.728 610.5 311.32C611.993 309.912 612.74 308.227 612.74 306.264C612.74 304.301 611.993 302.595 610.5 301.144C609.007 299.693 606.916 298.968 604.228 298.968C601.583 298.968 599.535 299.693 598.084 301.144C596.633 302.552 595.908 304.259 595.908 306.264C595.908 308.227 596.633 309.912 598.084 311.32C599.577 312.728 601.647 313.432 604.292 313.432ZM638.972 327H622.14V324.248L627.516 322.136V299.288H622.14V295.448C623.804 294.637 625.724 294.232 627.9 294.232C630.118 294.232 631.612 294.765 632.38 295.832C633.148 296.856 633.532 298.435 633.532 300.568V322.136L638.972 324.248V327ZM633.788 286.872C632.806 287.853 631.612 288.344 630.204 288.344C628.796 288.344 627.601 287.853 626.62 286.872C625.638 285.891 625.148 284.696 625.148 283.288C625.148 281.88 625.638 280.685 626.62 279.704C627.601 278.723 628.796 278.232 630.204 278.232C631.612 278.232 632.806 278.723 633.788 279.704C634.769 280.685 635.26 281.88 635.26 283.288C635.26 284.696 634.769 285.891 633.788 286.872ZM655.358 327.64C650.622 327.64 646.718 326.253 643.646 323.48C640.616 320.707 639.102 316.696 639.102 311.448C639.102 308.547 639.678 305.965 640.83 303.704C641.982 301.4 643.496 299.587 645.374 298.264C649.256 295.576 653.502 294.232 658.11 294.232C659.518 294.232 660.904 294.403 662.27 294.744C663.635 295.085 664.659 295.427 665.342 295.768L666.366 296.344V303.896H662.462L661.566 299.992C660.968 299.523 659.816 299.288 658.11 299.288C654.44 299.288 651.39 300.397 648.958 302.616C646.526 304.835 645.31 307.629 645.31 311C645.31 314.371 646.355 317.165 648.446 319.384C650.579 321.56 653.395 322.648 656.894 322.648C658.6 322.648 660.179 322.477 661.63 322.136C663.123 321.752 664.168 321.368 664.766 320.984L665.662 320.472L667.518 323.8C667.39 323.885 667.198 324.035 666.942 324.248C666.728 324.419 666.238 324.717 665.47 325.144C664.702 325.571 663.891 325.955 663.038 326.296C660.734 327.192 658.174 327.64 655.358 327.64ZM699.865 322.648V326.488C698.201 327.299 696.367 327.704 694.361 327.704C692.356 327.704 690.905 327.32 690.009 326.552C689.156 325.784 688.665 324.675 688.537 323.224C686.191 326.211 683.097 327.704 679.257 327.704C675.46 327.704 672.58 326.936 670.617 325.4C668.655 323.864 667.673 321.709 667.673 318.936C667.673 313.603 671.385 310.531 678.809 309.72L688.473 308.696V306.84C688.473 304.365 687.961 302.488 686.937 301.208C685.913 299.928 684.292 299.288 682.073 299.288C677.977 299.288 674.649 299.736 672.089 300.632L670.809 301.08L669.657 296.984C670.852 296.301 672.665 295.683 675.097 295.128C677.529 294.531 679.791 294.232 681.881 294.232C686.447 294.232 689.689 295.149 691.609 296.984C693.529 298.776 694.489 301.315 694.489 304.6V322.648H699.865ZM679.129 313.88C677.508 314.093 676.207 314.584 675.225 315.352C674.287 316.12 673.817 317.165 673.817 318.488C673.817 319.768 674.329 320.792 675.353 321.56C676.42 322.285 677.892 322.648 679.769 322.648C683.311 322.648 686.212 321.688 688.473 319.768V312.856L679.129 313.88ZM715.323 327H698.491V324.248L703.867 322.136V282.648H698.491V278.808C700.155 277.997 702.075 277.592 704.251 277.592C706.47 277.592 707.963 278.125 708.731 279.192C709.499 280.216 709.883 281.795 709.883 283.928V322.136L715.323 324.248V327ZM752.36 304.152H748.328L747.432 300.952C746.323 299.885 744.616 299.352 742.312 299.352C740.008 299.352 738.216 299.651 736.936 300.248C735.699 300.845 735.08 301.656 735.08 302.68C735.08 303.661 735.549 304.6 736.488 305.496C737.427 306.349 738.387 306.989 739.368 307.416C740.349 307.843 742.099 308.483 744.616 309.336C747.133 310.189 749.181 311.32 750.76 312.728C752.381 314.136 753.192 315.992 753.192 318.296C753.192 321.368 752.061 323.715 749.8 325.336C747.581 326.915 745.021 327.704 742.12 327.704C739.261 327.704 736.787 327.341 734.696 326.616C732.648 325.891 731.176 325.165 730.28 324.44L729 323.352V316.504H732.84L734.184 320.472C734.227 320.6 734.568 320.813 735.208 321.112C737.213 322.136 739.219 322.648 741.224 322.648C743.229 322.648 744.765 322.349 745.832 321.752C746.899 321.112 747.432 320.237 747.432 319.128C747.432 317.976 746.835 316.888 745.64 315.864C744.445 314.84 742.44 313.923 739.624 313.112C736.851 312.259 734.504 311.043 732.584 309.464C730.707 307.843 729.768 305.965 729.768 303.832C729.768 300.632 730.877 298.243 733.096 296.664C735.357 295.043 738.259 294.232 741.8 294.232C743.549 294.232 745.299 294.445 747.048 294.872C748.797 295.299 750.12 295.725 751.016 296.152L752.36 296.792V304.152ZM783.051 323.096C779.936 326.168 776.011 327.704 771.275 327.704C766.539 327.704 762.613 326.168 759.499 323.096C756.384 319.981 754.827 315.949 754.827 311C754.827 306.051 756.384 302.019 759.499 298.904C762.613 295.789 766.539 294.232 771.275 294.232C776.011 294.232 779.936 295.789 783.051 298.904C786.165 302.019 787.723 306.051 787.723 311C787.723 315.949 786.165 319.981 783.051 323.096ZM763.915 319.576C765.835 321.624 768.288 322.648 771.275 322.648C774.261 322.648 776.715 321.624 778.635 319.576C780.555 317.485 781.515 314.691 781.515 311.192C781.515 307.693 780.533 304.835 778.571 302.616C776.651 300.397 774.219 299.288 771.275 299.288C768.331 299.288 765.877 300.397 763.915 302.616C761.995 304.835 761.035 307.693 761.035 311.192C761.035 314.691 761.995 317.485 763.915 319.576ZM804.653 327H787.821V324.248L793.197 322.136V282.648H787.821V278.808C789.485 277.997 791.405 277.592 793.581 277.592C795.8 277.592 797.293 278.125 798.061 279.192C798.829 280.216 799.213 281.795 799.213 283.928V322.136L804.653 324.248V327ZM840.897 322.648V326.488C839.233 327.299 837.356 327.704 835.265 327.704C833.174 327.704 831.724 327.277 830.913 326.424C830.102 325.528 829.633 324.227 829.505 322.52C828.95 323.16 828.31 323.8 827.585 324.44C826.86 325.08 825.644 325.784 823.937 326.552C822.273 327.32 820.524 327.704 818.689 327.704C815.361 327.704 812.865 326.787 811.201 324.952C809.537 323.075 808.705 320.536 808.705 317.336V299.288H803.329V295.448C804.993 294.637 806.913 294.232 809.089 294.232C811.308 294.232 812.801 294.765 813.569 295.832C814.337 296.856 814.721 298.435 814.721 300.568V315.096C814.721 317.613 815.126 319.491 815.937 320.728C816.79 321.965 818.305 322.584 820.481 322.584C822.657 322.584 824.513 322.179 826.049 321.368C827.585 320.515 828.737 319.64 829.505 318.744V299.288H824.129V295.448C825.793 294.637 827.713 294.232 829.889 294.232C832.108 294.232 833.601 294.765 834.369 295.832C835.137 296.856 835.521 298.435 835.521 300.568V322.648H840.897ZM850.161 312.984C850.161 316.653 850.715 319.149 851.825 320.472C852.934 321.795 854.619 322.456 856.881 322.456C859.142 322.456 860.998 322.115 862.449 321.432L863.729 324.632C863.558 324.845 863.302 325.123 862.961 325.464C862.662 325.805 861.873 326.275 860.593 326.872C859.313 327.427 857.905 327.704 856.369 327.704C852.486 327.704 849.478 326.616 847.345 324.44C845.211 322.221 844.145 319 844.145 314.776V300.056H840.753V296.28L846.897 290.136H850.161V295H860.913V300.056H850.161V312.984ZM879.422 327H862.59V324.248L867.966 322.136V299.288H862.59V295.448C864.254 294.637 866.174 294.232 868.35 294.232C870.568 294.232 872.062 294.765 872.83 295.832C873.598 296.856 873.982 298.435 873.982 300.568V322.136L879.422 324.248V327ZM874.238 286.872C873.256 287.853 872.062 288.344 870.654 288.344C869.246 288.344 868.051 287.853 867.07 286.872C866.088 285.891 865.598 284.696 865.598 283.288C865.598 281.88 866.088 280.685 867.07 279.704C868.051 278.723 869.246 278.232 870.654 278.232C872.062 278.232 873.256 278.723 874.238 279.704C875.219 280.685 875.71 281.88 875.71 283.288C875.71 284.696 875.219 285.891 874.238 286.872ZM907.775 323.096C904.661 326.168 900.735 327.704 895.999 327.704C891.263 327.704 887.338 326.168 884.223 323.096C881.109 319.981 879.551 315.949 879.551 311C879.551 306.051 881.109 302.019 884.223 298.904C887.338 295.789 891.263 294.232 895.999 294.232C900.735 294.232 904.661 295.789 907.775 298.904C910.89 302.019 912.447 306.051 912.447 311C912.447 315.949 910.89 319.981 907.775 323.096ZM888.639 319.576C890.559 321.624 893.013 322.648 895.999 322.648C898.986 322.648 901.439 321.624 903.359 319.576C905.279 317.485 906.239 314.691 906.239 311.192C906.239 307.693 905.258 304.835 903.295 302.616C901.375 300.397 898.943 299.288 895.999 299.288C893.055 299.288 890.602 300.397 888.639 302.616C886.719 304.835 885.759 307.693 885.759 311.192C885.759 314.691 886.719 317.485 888.639 319.576ZM951.836 327H935.004V324.248L940.124 322.136V306.84C940.124 304.323 939.697 302.445 938.844 301.208C938.033 299.971 936.54 299.352 934.364 299.352C930.865 299.352 927.729 300.739 924.956 303.512V322.136L930.396 324.248V327H913.564V324.248L918.94 322.136V299.288H913.564V295.448C915.228 294.637 917.127 294.232 919.26 294.232C921.393 294.232 922.844 294.701 923.612 295.64C924.423 296.579 924.871 297.987 924.956 299.864C925.553 299.096 926.449 298.221 927.644 297.24C930.161 295.235 933.041 294.232 936.284 294.232C939.527 294.232 941.98 295.171 943.644 297.048C945.308 298.883 946.14 301.4 946.14 304.6V322.136L951.836 324.248V327ZM974.958 304.152H970.926L970.03 300.952C968.92 299.885 967.214 299.352 964.91 299.352C962.606 299.352 960.814 299.651 959.534 300.248C958.296 300.845 957.678 301.656 957.678 302.68C957.678 303.661 958.147 304.6 959.086 305.496C960.024 306.349 960.984 306.989 961.966 307.416C962.947 307.843 964.696 308.483 967.214 309.336C969.731 310.189 971.779 311.32 973.358 312.728C974.979 314.136 975.79 315.992 975.79 318.296C975.79 321.368 974.659 323.715 972.398 325.336C970.179 326.915 967.619 327.704 964.718 327.704C961.859 327.704 959.384 327.341 957.294 326.616C955.246 325.891 953.774 325.165 952.878 324.44L951.598 323.352V316.504H955.438L956.782 320.472C956.824 320.6 957.166 320.813 957.806 321.112C959.811 322.136 961.816 322.648 963.822 322.648C965.827 322.648 967.363 322.349 968.43 321.752C969.496 321.112 970.03 320.237 970.03 319.128C970.03 317.976 969.432 316.888 968.238 315.864C967.043 314.84 965.038 313.923 962.222 313.112C959.448 312.259 957.102 311.043 955.182 309.464C953.304 307.843 952.366 305.965 952.366 303.832C952.366 300.632 953.475 298.243 955.694 296.664C957.955 295.043 960.856 294.232 964.398 294.232C966.147 294.232 967.896 294.445 969.646 294.872C971.395 295.299 972.718 295.725 973.614 296.152L974.958 296.792V304.152ZM999.593 312.984C999.593 316.653 1000.15 319.149 1001.26 320.472C1002.37 321.795 1004.05 322.456 1006.31 322.456C1008.57 322.456 1010.43 322.115 1011.88 321.432L1013.16 324.632C1012.99 324.845 1012.73 325.123 1012.39 325.464C1012.09 325.805 1011.31 326.275 1010.03 326.872C1008.75 327.427 1007.34 327.704 1005.8 327.704C1001.92 327.704 998.91 326.616 996.777 324.44C994.644 322.221 993.577 319 993.577 314.776V300.056H990.185V296.28L996.329 290.136H999.593V295H1010.35V300.056H999.593V312.984ZM1040.44 323.096C1037.32 326.168 1033.4 327.704 1028.66 327.704C1023.93 327.704 1020 326.168 1016.89 323.096C1013.77 319.981 1012.21 315.949 1012.21 311C1012.21 306.051 1013.77 302.019 1016.89 298.904C1020 295.789 1023.93 294.232 1028.66 294.232C1033.4 294.232 1037.32 295.789 1040.44 298.904C1043.55 302.019 1045.11 306.051 1045.11 311C1045.11 315.949 1043.55 319.981 1040.44 323.096ZM1021.3 319.576C1023.22 321.624 1025.68 322.648 1028.66 322.648C1031.65 322.648 1034.1 321.624 1036.02 319.576C1037.94 317.485 1038.9 314.691 1038.9 311.192C1038.9 307.693 1037.92 304.835 1035.96 302.616C1034.04 300.397 1031.61 299.288 1028.66 299.288C1025.72 299.288 1023.26 300.397 1021.3 302.616C1019.38 304.835 1018.42 307.693 1018.42 311.192C1018.42 314.691 1019.38 317.485 1021.3 319.576ZM1056.68 295.064H1073.32V297.88L1068.97 299.416L1077.29 320.472L1084.97 299.416L1080.62 297.88V295.064H1096.62V297.88L1091.5 299.544L1077.16 333.784C1075.8 337.027 1074.09 339.608 1072.04 341.528C1070.04 343.448 1067.35 344.408 1063.98 344.408C1062.44 344.408 1061.08 344.173 1059.88 343.704C1058.73 343.235 1057.96 342.787 1057.58 342.36L1057 341.656L1058.73 338.136C1060.01 338.819 1061.76 339.16 1063.98 339.16C1067.82 339.16 1070.76 336.429 1072.81 330.968L1074.28 327.064L1061.8 299.544L1056.68 297.88V295.064ZM1122.62 323.096C1119.51 326.168 1115.58 327.704 1110.85 327.704C1106.11 327.704 1102.19 326.168 1099.07 323.096C1095.96 319.981 1094.4 315.949 1094.4 311C1094.4 306.051 1095.96 302.019 1099.07 298.904C1102.19 295.789 1106.11 294.232 1110.85 294.232C1115.58 294.232 1119.51 295.789 1122.62 298.904C1125.74 302.019 1127.3 306.051 1127.3 311C1127.3 315.949 1125.74 319.981 1122.62 323.096ZM1103.49 319.576C1105.41 321.624 1107.86 322.648 1110.85 322.648C1113.83 322.648 1116.29 321.624 1118.21 319.576C1120.13 317.485 1121.09 314.691 1121.09 311.192C1121.09 307.693 1120.11 304.835 1118.14 302.616C1116.22 300.397 1113.79 299.288 1110.85 299.288C1107.9 299.288 1105.45 300.397 1103.49 302.616C1101.57 304.835 1100.61 307.693 1100.61 311.192C1100.61 314.691 1101.57 317.485 1103.49 319.576ZM1164.7 322.648V326.488C1163.04 327.299 1161.16 327.704 1159.07 327.704C1156.98 327.704 1155.53 327.277 1154.72 326.424C1153.9 325.528 1153.44 324.227 1153.31 322.52C1152.75 323.16 1152.11 323.8 1151.39 324.44C1150.66 325.08 1149.45 325.784 1147.74 326.552C1146.08 327.32 1144.33 327.704 1142.49 327.704C1139.16 327.704 1136.67 326.787 1135 324.952C1133.34 323.075 1132.51 320.536 1132.51 317.336V299.288H1127.13V295.448C1128.8 294.637 1130.72 294.232 1132.89 294.232C1135.11 294.232 1136.6 294.765 1137.37 295.832C1138.14 296.856 1138.52 298.435 1138.52 300.568V315.096C1138.52 317.613 1138.93 319.491 1139.74 320.728C1140.59 321.965 1142.11 322.584 1144.28 322.584C1146.46 322.584 1148.32 322.179 1149.85 321.368C1151.39 320.515 1152.54 319.64 1153.31 318.744V299.288H1147.93V295.448C1149.6 294.637 1151.52 294.232 1153.69 294.232C1155.91 294.232 1157.4 294.765 1158.17 295.832C1158.94 296.856 1159.32 298.435 1159.32 300.568V322.648H1164.7Z" fill="white"/>
<defs>
<linearGradient id="paint0_linear" x1="699.162" y1="341.216" x2="739.5" y2="483" gradientUnits="userSpaceOnUse">
<stop stop-color="white"/>
<stop offset="1" stop-color="white" stop-opacity="0"/>
</linearGradient>
</defs>
</svg>
