<?xml version="1.0" encoding="iso-8859-1"?>
<!-- Generator: Adobe Illustrator 19.0.0, SVG Export Plug-In . SVG Version: 6.00 Build 0)  -->
<svg version="1.1" id="Capa_1" xmlns="http://www.w3.org/2000/svg" xmlns:xlink="http://www.w3.org/1999/xlink" x="0px" y="0px"
	 viewBox="0 0 512 512" style="enable-background:new 0 0 512 512;" xml:space="preserve">
<g>
	<g>
		<g>
			<path d="M207.405,274.286h39.452v-36.571h-45.453C202.016,250.092,204.029,262.361,207.405,274.286z"/>
			<path d="M214.078,164.571h32.779v-34.992C231.628,136.302,219.793,148.936,214.078,164.571z"/>
			<path d="M265.143,129.579v34.992h32.779C292.207,148.936,280.372,136.302,265.143,129.579z"/>
			<path d="M333.518,164.571c-7.673-9.234-16.927-17.03-27.33-23.023c4.704,7.239,8.625,14.956,11.699,23.023H333.518z"/>
			<path d="M188.302,182.857h-21.771c-5.865,11.393-9.477,23.81-10.64,36.571h27.24
				C183.636,207.097,185.368,194.846,188.302,182.857z"/>
			<path d="M246.857,327.564v-34.992h-32.779C219.793,308.207,231.628,320.841,246.857,327.564z"/>
			<path d="M304.595,182.857h-39.452v36.571h45.453C309.984,207.05,307.971,194.782,304.595,182.857z"/>
			<path d="M205.813,141.548c-10.403,5.993-19.658,13.789-27.33,23.023h15.632C197.187,156.504,201.109,148.787,205.813,141.548z"/>
			<path d="M178.482,292.571c7.673,9.234,16.927,17.03,27.33,23.023c-4.704-7.239-8.625-14.956-11.699-23.023H178.482z"/>
			<path d="M183.131,237.714h-27.24c1.162,12.761,4.775,25.178,10.64,36.571h21.771
				C185.368,262.297,183.636,250.046,183.131,237.714z"/>
			<path d="M201.404,219.429h45.453v-36.571h-39.452C204.029,194.782,202.016,207.05,201.404,219.429z"/>
			<path d="M475.429,82.286c-0.005-5.047-4.096-9.138-9.143-9.143H45.714c-5.047,0.005-9.138,4.096-9.143,9.143V384h438.857V82.286z
				 M125.795,286.621c3.287,3.831,2.845,9.602-0.987,12.888c-3.831,3.287-9.602,2.845-12.888-0.987l-54.857-64
				c-2.938-3.424-2.938-8.478,0-11.902l54.857-64c3.287-3.831,9.057-4.273,12.888-0.987c3.831,3.287,4.273,9.057,0.987,12.888
				l-49.75,58.049L125.795,286.621z M359.576,286.683L359.576,286.683c-0.335,0.786-0.781,1.52-1.325,2.178
				c-21.28,36.28-60.192,58.568-102.253,58.567s-80.972-22.289-102.251-58.57c-0.543-0.657-0.988-1.39-1.323-2.174
				c-20.376-36.063-20.376-80.164,0-116.227c0.334-0.784,0.78-1.517,1.323-2.174c21.279-36.281,60.19-58.569,102.251-58.57
				c42.061-0.001,80.972,22.287,102.253,58.567c0.544,0.659,0.99,1.392,1.325,2.178
				C379.951,206.522,379.951,250.621,359.576,286.683z M454.938,234.522l-54.857,64c-2.126,2.479-5.413,3.635-8.622,3.033
				c-3.21-0.602-5.854-2.87-6.938-5.951c-1.083-3.081-0.441-6.505,1.685-8.984l49.75-58.049l-49.75-58.049
				c-2.126-2.479-2.768-5.903-1.685-8.984c1.083-3.081,3.728-5.349,6.938-5.951c3.209-0.602,6.496,0.554,8.622,3.033l54.857,64
				C457.875,226.044,457.875,231.099,454.938,234.522z"/>
			<path d="M201.143,411.429h109.714c5.047-0.005,9.138-4.096,9.143-9.143H192C192.005,407.333,196.096,411.424,201.143,411.429z"/>
			<path d="M323.699,182.857c2.933,11.989,4.665,24.24,5.17,36.571h27.24c-1.162-12.761-4.775-25.178-10.64-36.571H323.699z"/>
			<path d="M484.571,402.286H338.286c-0.016,15.142-12.287,27.412-27.429,27.429H201.143c-15.142-0.017-27.412-12.287-27.429-27.429
				H0v18.286c0.012,10.094,8.192,18.274,18.286,18.286h475.429c10.094-0.012,18.274-8.192,18.286-18.286v-18.286H484.571z"/>
			<path d="M306.188,315.595c10.403-5.993,19.658-13.789,27.33-23.023h-15.632C314.813,300.638,310.891,308.356,306.188,315.595z"/>
			<path d="M265.143,327.564c15.229-6.722,27.064-19.357,32.779-34.992h-32.779V327.564z"/>
			<path d="M323.699,274.286h21.77c5.865-11.393,9.477-23.81,10.64-36.571h-27.24C328.364,250.046,326.632,262.297,323.699,274.286z
				"/>
			<path d="M265.143,237.714v36.571h39.452c3.376-11.924,5.39-24.193,6.001-36.571H265.143z"/>
		</g>
	</g>
</g>
<g>
</g>
<g>
</g>
<g>
</g>
<g>
</g>
<g>
</g>
<g>
</g>
<g>
</g>
<g>
</g>
<g>
</g>
<g>
</g>
<g>
</g>
<g>
</g>
<g>
</g>
<g>
</g>
<g>
</g>
</svg>
