<svg width="131" height="131" viewBox="0 0 131 131" fill="none" xmlns="http://www.w3.org/2000/svg">
<path d="M65.5 131C101.675 131 131 101.675 131 65.5C131 29.3253 101.675 0 65.5 0C29.3253 0 0 29.3253 0 65.5C0 101.675 29.3253 131 65.5 131Z" fill="white"/>
<path d="M65.5 131C101.675 131 131 101.675 131 65.5C131 29.3253 101.675 0 65.5 0C29.3253 0 0 29.3253 0 65.5C0 101.675 29.3253 131 65.5 131Z" fill="url(#paint0_linear)"/>
<path d="M65.8211 55.1055L94.1419 67.1798L65.8203 79.3948L65.6997 79.4467V79.5781V88.6646V88.983L65.9861 88.8444L103.129 70.9081L103.242 70.8538V70.7284V63.819V63.6936L103.129 63.6388L65.9861 45.7502L65.6997 45.612V45.9299V54.9218V55.0536L65.8211 55.1055Z" fill="black" stroke="black"/>
<mask id="mask0" mask-type="alpha" maskUnits="userSpaceOnUse" x="27" y="43" width="39" height="43">
<path d="M65.7823 43.5335H27.9573V85.0917H65.7823V43.5335Z" fill="#C4C4C4"/>
</mask>
<g mask="url(#mask0)">
<path d="M51.2881 72.8336L51.2861 72.8368C50.1942 74.5646 48.6617 75.4197 46.6687 75.4197C44.8012 75.4197 43.2923 74.4691 42.1373 72.5137C41.0066 70.5835 40.4323 67.9934 40.4323 64.7288C40.4323 61.1878 41.1691 58.3521 42.6249 56.2046C44.1039 54.0942 46.084 52.9691 48.579 52.8166L48.7663 52.8054V52.6173V43.9329V43.7332H48.5667C45.8784 43.7332 43.3742 44.6267 41.0597 46.4032L41.0573 46.4052C38.7704 48.214 36.991 50.701 35.715 53.857C34.4384 57.0146 33.8025 60.6398 33.8025 64.7288C33.8025 70.5447 35.0045 75.2963 37.4251 78.9682L37.4257 78.969C39.8792 82.6486 43.1429 84.5034 47.2051 84.5034C49.6362 84.5034 51.7031 83.8352 53.3933 82.4897C55.1059 81.1797 56.5533 79.1608 57.7442 76.4509C58.9352 73.741 59.9565 70.2048 60.8108 65.8467C61.6631 61.5289 62.5525 58.5686 63.4703 56.9403C64.3717 55.3419 65.6957 54.5539 67.4638 54.5539C69.3429 54.5539 70.8658 55.4062 72.0432 57.142C73.223 58.8809 73.8245 61.3084 73.8245 64.4468C73.8245 67.4802 73.0768 69.9704 71.5955 71.9314L71.5943 71.9326C70.1102 73.9279 68.3632 74.9033 66.3499 74.9033H66.1502V75.103V83.8344V84.0341H66.3499C70.4912 84.0341 73.8904 82.1985 76.5371 78.5537C79.1819 74.9428 80.4951 70.2348 80.4951 64.4468C80.4951 58.9396 79.2226 54.3894 76.6622 50.8112L76.6614 50.8104C74.1013 47.2643 70.9509 45.4702 67.2162 45.4702C64.9764 45.4702 63.0346 46.0924 61.4011 47.3421L61.3991 47.3433C59.7703 48.6214 58.3781 50.5608 57.2142 53.1457L57.2139 53.1465C56.05 55.7637 55.0559 59.2699 54.2296 63.6588V63.6592C53.4049 68.0685 52.42 71.117 51.2881 72.8336Z" fill="black" stroke="black"/>
</g>
<defs>
<linearGradient id="paint0_linear" x1="25.1616" y1="-10.7835" x2="65.5" y2="131" gradientUnits="userSpaceOnUse">
<stop stop-color="white"/>
<stop offset="1" stop-color="white" stop-opacity="0"/>
</linearGradient>
</defs>
</svg>
