<svg width="328" height="328" viewBox="0 0 328 328" fill="none" xmlns="http://www.w3.org/2000/svg">
<circle cx="164" cy="164" r="164" fill="#A61B0F"/>
<path d="M164.804 137.974L235.714 168.206L164.802 198.79L164.5 198.92V199.249V222V222.797L165.217 222.45L258.217 177.541L258.5 177.405V177.091V159.791V159.477L258.217 159.34L165.217 114.55L164.5 114.204V115V137.514V137.844L164.804 137.974Z" fill="white" stroke="white"/>
<mask id="mask0" mask-type="alpha" maskUnits="userSpaceOnUse" x="70" y="109" width="95" height="105">
<rect x="70" y="109" width="94.7068" height="104.054" fill="#C4C4C4"/>
</mask>
<g mask="url(#mask0)">
<path d="M128.416 182.362L128.416 182.362L128.411 182.37C125.677 186.696 121.84 188.837 116.85 188.837C112.174 188.837 108.396 186.457 105.504 181.561C102.673 176.728 101.235 170.243 101.235 162.069C101.235 153.203 103.08 146.103 106.725 140.726C110.428 135.442 115.386 132.625 121.633 132.243L122.102 132.215V131.744V110V109.5L121.602 109.5C114.871 109.5 108.601 111.737 102.806 116.185L102.806 116.185L102.8 116.19C97.0741 120.719 92.6188 126.946 89.4239 134.848C86.2274 142.754 84.6353 151.831 84.6353 162.069C84.6353 176.631 87.6448 188.528 93.7055 197.722L93.707 197.724C99.8501 206.937 108.022 211.581 118.193 211.581C124.28 211.581 129.455 209.908 133.687 206.539C137.975 203.259 141.599 198.204 144.581 191.419C147.563 184.634 150.12 175.78 152.258 164.869C154.393 154.057 156.62 146.645 158.918 142.568C161.175 138.566 164.49 136.593 168.917 136.593C173.622 136.593 177.435 138.727 180.383 143.073C183.337 147.427 184.843 153.505 184.843 161.363C184.843 168.958 182.971 175.193 179.262 180.103L179.259 180.106C175.543 185.102 171.169 187.544 166.128 187.544H165.628V188.044V209.906V210.406H166.128C176.497 210.406 185.009 205.81 191.635 196.683C198.257 187.642 201.545 175.854 201.545 161.363C201.545 147.574 198.359 136.181 191.948 127.222L191.946 127.22C185.536 118.341 177.648 113.849 168.297 113.849C162.689 113.849 157.827 115.407 153.737 118.536L153.732 118.539C149.654 121.739 146.168 126.595 143.254 133.067L143.253 133.069C140.339 139.622 137.85 148.401 135.781 159.39L135.781 159.391C133.716 170.431 131.25 178.064 128.416 182.362Z" fill="white" stroke="white"/>
</g>
</svg>
